<?xml version="1.0" standalone="no"?>
<!DOCTYPE svg PUBLIC "-//W3C//DTD SVG 20010904//EN"
 "http://www.w3.org/TR/2001/REC-SVG-20010904/DTD/svg10.dtd">
<svg version="1.0" xmlns="http://www.w3.org/2000/svg"
 width="1920.000000pt" height="400.000000pt" viewBox="0 0 1920.000000 400.000000"
 preserveAspectRatio="xMidYMid meet">

<g transform="translate(0.000000,400.000000) scale(0.100000,-0.100000)"
fill="#000000" stroke="none">
<path d="M2771 3058 c-5 -13 -36 -97 -69 -188 -33 -91 -64 -173 -67 -183 -7
-16 -1 -18 70 -15 l78 3 83 200 c46 110 84 201 84 203 0 1 -38 2 -85 2 -79 0
-86 -2 -94 -22z"/>
<path d="M16679 3038 c-6 -24 -31 -116 -54 -205 l-43 -163 74 0 c41 0 74 2 74
4 0 2 31 94 70 205 l69 201 -89 0 -89 0 -12 -42z"/>
<path d="M6261 3042 c-52 -26 -76 -65 -75 -122 1 -62 24 -97 81 -122 37 -16
52 -18 84 -10 l39 10 0 -40 c0 -72 -21 -120 -78 -177 -51 -51 -53 -55 -50
-101 l3 -48 45 21 c226 107 286 521 87 596 -42 16 -97 13 -136 -7z"/>
<path d="M10431 3042 c-52 -26 -76 -65 -75 -122 1 -62 24 -97 81 -122 37 -16
52 -18 84 -10 l39 10 0 -40 c0 -72 -21 -120 -78 -177 -51 -51 -53 -55 -50
-101 l3 -48 45 21 c226 107 286 521 87 596 -42 16 -97 13 -136 -7z"/>
<path d="M3890 2030 l0 -1010 80 0 80 0 0 1010 0 1010 -80 0 -80 0 0 -1010z"/>
<path d="M8100 2608 l0 -431 -55 61 c-91 100 -212 172 -351 207 -95 25 -295
26 -384 1 -237 -64 -410 -228 -491 -466 -32 -91 -33 -102 -33 -245 -1 -127 3
-162 22 -230 74 -256 266 -442 518 -501 96 -22 270 -19 369 6 136 34 218 81
321 186 l92 92 7 -134 7 -134 69 0 69 0 0 1010 0 1010 -80 0 -80 0 0 -432z
m-465 -304 c169 -21 327 -138 409 -301 79 -158 74 -416 -11 -576 -36 -67 -153
-184 -220 -220 -162 -86 -403 -88 -573 -5 -88 43 -195 150 -238 240 -86 176
-82 418 9 588 61 114 201 225 329 260 95 27 171 30 295 14z"/>
<path d="M15870 2608 l0 -431 -55 61 c-91 100 -212 172 -351 207 -95 25 -295
26 -384 1 -237 -64 -410 -228 -491 -466 -32 -91 -33 -102 -33 -245 -1 -127 3
-162 22 -230 74 -256 266 -442 518 -501 96 -22 270 -19 369 6 136 34 218 81
321 186 l92 92 7 -134 7 -134 69 0 69 0 0 1010 0 1010 -80 0 -80 0 0 -432z
m-465 -304 c169 -21 327 -138 409 -301 79 -158 74 -416 -11 -576 -36 -67 -153
-184 -220 -220 -162 -86 -403 -88 -573 -5 -88 43 -195 150 -238 240 -86 176
-82 418 9 588 61 114 201 225 329 260 95 27 171 30 295 14z"/>
<path d="M11196 2970 c-86 -27 -124 -135 -73 -211 83 -125 279 -60 264 88 -3
24 -12 54 -21 68 -30 46 -113 73 -170 55z"/>
<path d="M2615 2460 c-232 -34 -423 -168 -523 -367 -50 -98 -73 -194 -79 -328
-10 -231 53 -417 189 -561 157 -165 368 -238 614 -213 111 11 181 32 279 82
101 52 234 181 284 275 18 35 31 65 29 66 -1 2 -40 6 -86 8 l-83 5 -35 -53
c-73 -110 -207 -200 -334 -224 -80 -16 -226 -13 -295 5 -197 51 -343 205 -389
412 -9 40 -16 77 -16 82 0 8 200 11 644 11 l644 0 -5 68 c-15 236 -78 396
-212 535 -104 109 -211 164 -370 192 -88 16 -173 17 -256 5z m236 -154 c231
-42 398 -217 443 -468 l7 -38 -566 0 -567 0 7 43 c25 160 107 297 224 375 135
90 281 118 452 88z"/>
<path d="M5076 2455 c-266 -51 -460 -219 -547 -473 -31 -92 -33 -104 -33 -247
-1 -128 2 -162 22 -230 102 -353 407 -548 803 -513 300 27 527 211 619 503 31
100 38 282 16 395 -57 280 -235 474 -507 550 -100 28 -269 34 -373 15z m318
-161 c198 -48 354 -206 401 -405 31 -134 12 -338 -43 -446 -51 -99 -145 -194
-240 -242 -158 -80 -397 -80 -562 1 -90 43 -196 151 -239 241 -111 233 -69
536 99 706 140 142 365 198 584 145z"/>
<path d="M9298 2460 c-287 -49 -491 -230 -570 -507 -19 -64 -22 -103 -23 -223
0 -169 15 -238 77 -370 55 -115 177 -239 288 -293 154 -75 354 -99 530 -63
154 32 324 141 420 270 34 47 80 127 80 141 0 3 -40 5 -88 5 l-89 0 -32 -49
c-44 -69 -121 -135 -205 -176 -87 -43 -149 -55 -278 -55 -249 0 -441 138 -516
370 -11 36 -24 84 -27 108 l-7 42 646 0 646 0 -4 38 c-3 20 -8 69 -10 107 -11
140 -68 288 -158 410 -135 183 -426 288 -680 245z m246 -155 c232 -44 395
-217 440 -467 l7 -38 -566 0 -567 0 7 43 c51 331 340 527 679 462z"/>
<path d="M12325 2456 c-140 -28 -237 -79 -326 -173 -66 -70 -93 -112 -119
-187 l-19 -56 82 0 82 0 19 48 c27 65 112 147 188 181 205 92 432 59 567 -83
62 -66 89 -137 97 -260 l7 -94 -379 -4 c-365 -3 -381 -4 -444 -27 -130 -45
-221 -126 -261 -230 -32 -81 -32 -223 0 -303 65 -166 254 -267 496 -268 227 0
398 64 532 198 l63 63 0 -44 c0 -24 3 -78 6 -120 l7 -77 70 0 70 0 -7 498 c-4
294 -11 517 -18 547 -18 82 -57 154 -124 225 -70 74 -164 128 -269 155 -86 22
-236 27 -320 11z m575 -816 c0 -184 -103 -346 -275 -431 -172 -85 -384 -91
-534 -14 -159 80 -188 298 -55 414 83 73 125 80 522 80 l342 1 0 -50z"/>
<path d="M17882 2459 c-164 -29 -309 -126 -403 -269 -16 -24 -17 -20 -24 108
l-8 132 -68 0 -69 0 0 -705 0 -705 79 0 80 0 3 433 c4 420 4 434 27 502 53
163 161 280 301 330 125 44 271 37 387 -20 116 -57 185 -150 224 -303 17 -69
19 -113 19 -509 l0 -433 81 0 80 0 -3 473 c-4 455 -5 475 -27 547 -60 201
-187 338 -368 399 -72 24 -231 35 -311 20z"/>
<path d="M434 2413 c4 -10 145 -328 314 -706 l307 -688 80 3 79 3 312 695
c172 382 313 698 313 703 1 4 -37 7 -83 7 l-83 0 -116 -252 c-63 -139 -182
-404 -263 -588 -81 -184 -150 -339 -154 -343 -4 -4 -127 259 -273 585 l-266
593 -87 3 c-80 3 -86 1 -80 -15z"/>
<path d="M11160 1615 c0 -799 0 -815 -21 -870 -36 -97 -99 -127 -270 -128
l-109 0 0 -79 0 -78 58 0 c314 2 445 76 487 276 12 57 15 209 15 882 l0 812
-80 0 -80 0 0 -815z"/>
<path d="M13590 1725 l0 -705 79 0 79 0 4 413 c4 392 6 416 27 487 67 224 198
338 413 360 53 5 117 7 143 4 l45 -7 0 78 0 78 -137 -5 c-116 -4 -149 -9 -207
-31 -121 -45 -212 -124 -272 -237 l-19 -35 -9 153 -8 152 -69 0 -69 0 0 -705z"/>
<path d="M16590 1725 l0 -705 80 0 80 0 0 705 0 705 -80 0 -80 0 0 -705z"/>
</g>
</svg>
